<?xml version="1.0" encoding="UTF-8" standalone="no"?><!DOCTYPE svg PUBLIC "-//W3C//DTD SVG 1.1//EN" "http://www.w3.org/Graphics/SVG/1.1/DTD/svg11.dtd"><svg width="100%" height="100%" viewBox="0 0 484 271" version="1.1" xmlns="http://www.w3.org/2000/svg" xmlns:xlink="http://www.w3.org/1999/xlink" xml:space="preserve" xmlns:serif="http://www.serif.com/" style="fill-rule:evenodd;clip-rule:evenodd;stroke-linecap:round;"><g><g><g><path d="M232.793,18.617l0.037,0l-0.037,0Z" style="fill:none;"/><path d="M251.326,9.669c-3.412,-0.919 -7.001,-1.415 -10.689,-1.415c-3.239,0 -6.389,0.379 -9.422,1.108c-18.259,4.273 -31.952,20.723 -31.952,40.264c0,10.049 4.812,22.372 8.75,29.808c5.424,9.944 22.822,40.746 27.97,49.904l4.683,8.24l4.506,-8.138c0.191,-0.205 21.203,-37.683 28.219,-49.889c4.187,-7.336 8.648,-20.3 8.648,-29.927c-0.002,-19.088 -13.081,-35.23 -30.713,-39.955Zm12.994,64.691c-1.21,2.144 -2.845,5.016 -4.71,8.313c-0.075,0.146 -0.162,0.29 -0.248,0.452c-5.777,10.208 -13.695,24.251 -18.725,33.279c-5.193,-9.085 -13.154,-23.291 -18.696,-33.279c-0.089,-0.146 -0.174,-0.292 -0.248,-0.437c-1.865,-3.371 -3.44,-6.229 -4.522,-8.211c-3.735,-6.898 -7.569,-17.296 -7.569,-24.851c0,-13.49 8.768,-25.04 20.87,-29.268c3.193,-1.124 6.623,-1.735 10.179,-1.735c3.88,0 7.657,0.729 11.186,2.116c3.936,1.53 7.567,3.894 10.662,6.984c5.816,5.922 9.055,13.564 9.055,21.904c-0.002,7.467 -3.821,18.696 -7.234,24.733Z" style="fill:#3bbe42;fill-rule:nonzero;"/></g><path d="M221.941,83.125l-0.248,0l0,-0.438c0.075,0.146 0.159,0.292 0.248,0.438Z" style="fill:#3bbe42;fill-rule:nonzero;"/><path d="M259.61,82.673l0,0.452l-0.248,0c0.086,-0.16 0.173,-0.306 0.248,-0.452Z" style="fill:#3bbe42;fill-rule:nonzero;"/></g><path d="M233.738,49.783c-2.978,-0.891 -6.01,-1.729 -9.306,-2.303c-0.685,-2.231 -1.129,-4.483 -1.381,-7.095c-0.079,-0.83 -0.266,-1.914 -0.092,-2.673c0.246,-1.074 2.682,-3.372 3.501,-4.146c1.592,-1.505 2.982,-2.262 4.609,-2.948c1.223,-0.517 4.141,-0.002 5.62,0.369c1.588,0.397 2.955,1.025 4.053,1.751c0.435,2.117 0.705,4.333 1.014,6.725c0.094,0.731 0.386,1.719 0.275,2.304c-0.136,0.734 -1.431,1.436 -2.119,2.027c-2.18,1.871 -4.375,3.974 -6.174,5.989Z" style="fill:#3bbe42;"/><path d="M233.74,49.789l-0.003,-0.001c-2.834,-0.847 -5.923,-1.713 -9.305,-2.303c-0.698,-2.262 -1.137,-4.517 -1.386,-7.099c-0.015,-0.161 -0.035,-0.333 -0.055,-0.508c-0.083,-0.729 -0.177,-1.555 -0.037,-2.167c0.246,-1.068 2.684,-3.374 3.484,-4.132l0.018,-0.016c1.591,-1.504 2.993,-2.267 4.61,-2.95c0.343,-0.144 0.846,-0.218 1.491,-0.218c1.317,0 2.998,0.303 4.133,0.588c1.478,0.369 2.88,0.974 4.055,1.751c0.402,1.944 0.662,3.98 0.94,6.134l0.076,0.595c0.03,0.232 0.078,0.484 0.13,0.751c0.109,0.567 0.222,1.154 0.147,1.554c-0.1,0.536 -0.822,1.06 -1.458,1.523c-0.245,0.178 -0.475,0.347 -0.663,0.507c-2.319,1.991 -4.454,4.062 -6.174,5.99l-0.003,0.001Zm-1.183,-19.384c-0.645,0 -1.145,0.074 -1.488,0.218c-1.615,0.682 -3.017,1.444 -4.607,2.948l-0.017,0.016c-0.8,0.757 -3.238,3.062 -3.482,4.128c-0.14,0.609 -0.045,1.434 0.038,2.162c0.02,0.176 0.039,0.347 0.055,0.508c0.249,2.582 0.688,4.837 1.382,7.094c3.378,0.586 6.466,1.451 9.299,2.298c1.72,-1.927 3.855,-3.996 6.173,-5.986c0.188,-0.162 0.419,-0.331 0.664,-0.509c0.634,-0.462 1.353,-0.985 1.454,-1.516c0.074,-0.399 -0.038,-0.985 -0.147,-1.551c-0.051,-0.268 -0.1,-0.52 -0.13,-0.751l-0.076,-0.595c-0.277,-2.154 -0.538,-4.19 -0.938,-6.13c-1.171,-0.772 -2.573,-1.377 -4.049,-1.747c-1.135,-0.284 -2.815,-0.587 -4.131,-0.587Z" style="fill:none;"/><path d="M257.604,38.358c2.292,0.472 4.097,1.432 5.805,2.487c0.603,1.519 1.156,3.202 1.659,4.977c0.489,1.726 1.143,3.772 0.922,5.712c-0.147,1.274 -1.137,3.395 -1.752,4.515c-0.738,1.345 -1.688,2.614 -2.672,3.501c-1.986,-1.026 -4.064,-1.955 -6.265,-2.763c-0.193,-3.177 -0.812,-5.841 -1.567,-8.569c-0.207,-0.744 -0.783,-1.987 -0.737,-2.581c0.059,-0.779 1.76,-2.803 2.21,-3.501c0.966,-1.489 1.641,-2.631 2.397,-3.778Z" style="fill:#3bbe42;"/><path d="M261.567,59.557l-0.003,-0.002c-2.058,-1.063 -4.166,-1.993 -6.264,-2.763c-0.204,-3.285 -0.876,-6.062 -1.572,-8.574c-0.068,-0.244 -0.175,-0.54 -0.288,-0.854c-0.224,-0.622 -0.479,-1.328 -0.447,-1.728c0.043,-0.571 0.964,-1.806 1.635,-2.707c0.245,-0.327 0.456,-0.61 0.576,-0.797c0.462,-0.713 0.852,-1.337 1.228,-1.939c0.398,-0.638 0.774,-1.241 1.168,-1.838c2.351,0.481 4.182,1.48 5.813,2.486c0.575,1.445 1.132,3.119 1.66,4.979c0.04,0.138 0.078,0.278 0.12,0.42c0.471,1.644 1.006,3.509 0.8,5.294c-0.15,1.325 -1.21,3.535 -1.75,4.518c-0.766,1.394 -1.715,2.639 -2.673,3.502l-0.003,0.003Zm-3.965,-21.194c-0.387,0.595 -0.764,1.198 -1.161,1.835c-0.378,0.603 -0.767,1.228 -1.23,1.941c-0.119,0.187 -0.33,0.47 -0.574,0.797c-0.671,0.899 -1.593,2.133 -1.636,2.702c-0.031,0.397 0.224,1.101 0.448,1.723c0.114,0.313 0.221,0.61 0.288,0.855c0.697,2.513 1.367,5.29 1.568,8.571c2.094,0.766 4.201,1.695 6.26,2.757c0.956,-0.862 1.904,-2.105 2.668,-3.498c0.538,-0.983 1.598,-3.19 1.749,-4.513c0.205,-1.784 -0.33,-3.647 -0.8,-5.29c-0.042,-0.142 -0.081,-0.282 -0.12,-0.42c-0.528,-1.86 -1.085,-3.534 -1.659,-4.975c-1.626,-1.005 -3.454,-2.002 -5.801,-2.485Z" style="fill:none;"/><path d="M242.217,42.32c3.922,0.655 7.199,1.953 10.411,3.317c0.721,2.423 1.592,5.016 2.028,7.924c0.137,0.92 0.43,2.231 0.276,3.04c-0.136,0.717 -1.131,1.501 -1.751,2.12c-1.991,1.992 -3.882,3.886 -6.265,5.344c-3.939,-0.7 -7.461,-1.814 -10.596,-3.317c-0.648,-2.531 -1.192,-5.143 -1.75,-7.924c-0.163,-0.807 -0.642,-1.885 -0.554,-2.58c0.076,-0.598 1.139,-1.6 1.751,-2.212c2.057,-2.056 4.455,-3.971 6.45,-5.712Z" style="fill:#3bbe42;"/><path d="M246.915,64.071l-0.001,0c-3.878,-0.691 -7.444,-1.807 -10.597,-3.317c-0.684,-2.663 -1.263,-5.488 -1.754,-7.93c-0.054,-0.274 -0.145,-0.576 -0.241,-0.895c-0.182,-0.604 -0.369,-1.228 -0.311,-1.686c0.068,-0.547 0.943,-1.412 1.58,-2.045c0.06,-0.059 0.118,-0.116 0.172,-0.17c1.477,-1.477 3.106,-2.86 4.682,-4.198c0.62,-0.526 1.205,-1.024 1.769,-1.514c3.963,0.659 7.319,1.999 10.417,3.316c0.116,0.387 0.234,0.775 0.353,1.167c0.644,2.12 1.31,4.312 1.676,6.759c0.027,0.183 0.06,0.378 0.094,0.584c0.144,0.848 0.307,1.808 0.183,2.46c-0.109,0.572 -0.763,1.185 -1.339,1.726c-0.148,0.139 -0.287,0.27 -0.413,0.396l-0.021,0.02c-1.99,1.992 -3.868,3.871 -6.245,5.325l-0.004,0.002Zm-4.7,-21.747c-0.558,0.49 -1.144,0.988 -1.764,1.514c-1.576,1.338 -3.205,2.721 -4.681,4.198c-0.054,0.054 -0.112,0.111 -0.171,0.171c-0.601,0.595 -1.51,1.494 -1.578,2.038c-0.058,0.455 0.13,1.079 0.311,1.68c0.096,0.32 0.187,0.623 0.241,0.898c0.491,2.44 1.07,5.266 1.751,7.923c3.149,1.508 6.714,2.624 10.59,3.314c2.375,-1.453 4.255,-3.332 6.242,-5.322l0.021,-0.021c0.126,-0.124 0.266,-0.256 0.413,-0.395c0.576,-0.54 1.229,-1.151 1.337,-1.722c0.123,-0.649 -0.038,-1.608 -0.181,-2.455c-0.035,-0.207 -0.069,-0.402 -0.096,-0.583c-0.367,-2.448 -1.032,-4.64 -1.676,-6.759c-0.119,-0.393 -0.238,-0.781 -0.351,-1.164c-3.093,-1.313 -6.449,-2.653 -10.408,-3.315Z" style="fill:none;"/><path d="M236.042,61.025c3.262,1.439 6.697,2.701 10.781,3.317c0.399,1.055 0.603,2.175 0.922,3.408c0.265,1.022 0.986,2.43 0.83,3.411c-0.158,0.986 -2.471,2.349 -3.594,2.856c-3.383,1.525 -7.044,1.447 -10.78,0.184c-1.423,-0.48 -3.774,-1.419 -4.515,-2.212c-0.652,-0.695 -1.078,-2.162 -1.383,-3.224c-0.369,-1.29 -0.512,-2.522 -0.644,-3.962c2.965,-1.088 5.75,-2.358 8.383,-3.778Z" style="fill:#3bbe42;"/><path d="M239.619,75.159c-1.724,0 -3.548,-0.319 -5.42,-0.952c-1.65,-0.559 -3.823,-1.473 -4.517,-2.214c-0.659,-0.702 -1.096,-2.222 -1.386,-3.227c-0.38,-1.332 -0.521,-2.635 -0.642,-3.963c2.858,-1.051 5.678,-2.323 8.386,-3.782c2.889,1.272 6.426,2.661 10.784,3.316c0.284,0.746 0.469,1.525 0.666,2.348c0.082,0.345 0.166,0.701 0.26,1.065c0.082,0.311 0.203,0.654 0.332,1.017c0.298,0.842 0.606,1.711 0.497,2.394c-0.16,1 -2.536,2.382 -3.597,2.861c-1.676,0.755 -3.48,1.137 -5.363,1.137Zm-3.579,-14.129c-2.704,1.459 -5.524,2.73 -8.38,3.777c0.125,1.321 0.267,2.623 0.647,3.955c0.289,1.005 0.726,2.523 1.383,3.223c0.692,0.74 2.864,1.653 4.513,2.209c1.87,0.633 3.693,0.955 5.416,0.955c1.882,0 3.685,-0.384 5.36,-1.138c1.057,-0.478 3.432,-1.857 3.591,-2.851c0.109,-0.681 -0.199,-1.55 -0.497,-2.389c-0.129,-0.363 -0.252,-0.708 -0.333,-1.019c-0.094,-0.365 -0.179,-0.72 -0.261,-1.065c-0.195,-0.824 -0.38,-1.603 -0.66,-2.344c-4.356,-0.652 -7.894,-2.041 -10.779,-3.313Z" style="fill:none;"/><g><path d="M250.326,26.379c0.064,1.357 0.168,2.738 -0.092,3.962c-3.508,0.272 -6.693,0.865 -9.215,2.119c-2.428,-1.505 -5.529,-2.333 -9.399,-2.395c-0.056,-1.326 -0.049,-2.715 -0.184,-3.962c5.025,-2.35 14.13,-2.23 18.89,0.276Z" style="fill:#3bbe42;"/><path d="M241.018,32.466l-0.002,-0.001c-2.466,-1.529 -5.626,-2.334 -9.396,-2.395c-0.022,-0.416 -0.034,-0.84 -0.045,-1.251c-0.025,-0.912 -0.05,-1.855 -0.144,-2.716c2.295,-1.076 5.618,-1.691 9.12,-1.691c3.844,0 7.408,0.716 9.775,1.963c0.011,0.132 0.016,0.26 0.023,0.388c0.062,1.215 0.125,2.47 -0.112,3.58c-4.007,0.314 -6.934,0.987 -9.217,2.122l-0.002,0.001Zm-0.467,-8.044c-3.501,0 -6.822,0.615 -9.112,1.685c0.096,0.856 0.121,1.799 0.146,2.712c0.011,0.41 0.023,0.834 0.04,1.246c3.766,0.056 6.928,0.861 9.394,2.389c2.283,-1.135 5.21,-1.808 9.215,-2.118c0.231,-1.104 0.166,-2.359 0.105,-3.572c-0.007,-0.128 -0.012,-0.257 -0.019,-0.385c-2.364,-1.242 -5.926,-1.957 -9.769,-1.957Z" style="fill:none;"/></g><g><path d="M250.786,26.564c6.192,2.592 10.643,6.925 13.36,12.992c-0.251,0.271 -0.424,0.62 -0.644,0.921c-1.699,-1.066 -3.636,-1.892 -5.805,-2.487c-2.125,-2.759 -4.127,-5.64 -7.095,-7.556c0.093,-1.258 0.246,-2.457 0.184,-3.87Z" style="fill:#3bbe42;"/><path d="M263.503,40.484l-0.005,-0.003c-1.68,-1.055 -3.632,-1.891 -5.803,-2.486c-0.244,-0.314 -0.482,-0.628 -0.721,-0.942c-1.841,-2.416 -3.744,-4.916 -6.375,-6.615c0.018,-0.278 0.041,-0.547 0.064,-0.817c0.082,-0.959 0.166,-1.95 0.117,-3.057l0,-0.007l0.007,0.002c6.16,2.579 10.656,6.95 13.363,12.995c-0.157,0.174 -0.286,0.376 -0.41,0.572c-0.075,0.118 -0.152,0.24 -0.234,0.354l-0.003,0.004Zm-12.713,-13.912c0.048,1.104 -0.036,2.094 -0.118,3.05c-0.023,0.27 -0.045,0.54 -0.066,0.813c2.63,1.695 4.535,4.195 6.376,6.613c0.239,0.313 0.478,0.627 0.718,0.939c2.167,0.593 4.12,1.429 5.799,2.483c0.082,-0.112 0.159,-0.233 0.232,-0.349c0.124,-0.197 0.253,-0.4 0.409,-0.568c-2.705,-6.034 -7.196,-10.404 -13.35,-12.981Z" style="fill:none;"/></g><g><path d="M222.59,37.712c0.181,3.599 0.525,7.032 1.567,9.769c-1.648,2.469 -3.172,5.059 -3.686,8.661c-1.294,0.413 -3.291,0.325 -4.608,0c-1.667,-2.181 -1.546,-6.609 -1.013,-9.86c0.531,-3.24 1.642,-6.245 2.949,-8.385c1.283,-0.585 3.276,-0.517 4.791,-0.185Z" style="fill:#3bbe42;"/><path d="M218.321,56.425c-0.848,0 -1.744,-0.102 -2.458,-0.28c-2.013,-2.628 -1.288,-8.214 -1.017,-9.864c0.505,-3.09 1.579,-6.146 2.949,-8.387c0.631,-0.288 1.486,-0.44 2.477,-0.44c0.751,0 1.575,0.091 2.319,0.254c0.166,3.223 0.478,6.9 1.57,9.771c-1.577,2.367 -3.16,4.982 -3.685,8.664c-0.573,0.186 -1.317,0.282 -2.155,0.282Zm1.951,-18.96c-0.99,0 -1.844,0.151 -2.471,0.437c-1.365,2.237 -2.441,5.293 -2.945,8.381c-0.27,1.649 -0.995,7.23 1.012,9.855c0.71,0.174 1.606,0.276 2.453,0.276c0.838,0 1.58,-0.096 2.149,-0.277c0.521,-3.679 2.104,-6.296 3.683,-8.659c-1.094,-2.868 -1.406,-6.545 -1.569,-9.766c-0.739,-0.158 -1.562,-0.247 -2.312,-0.247Z" style="fill:none;"/></g><g><path d="M266.358,52.179c0.105,-0.014 0.164,0.021 0.184,0.092c-0.439,6.31 -2.844,11.055 -5.989,14.835c-0.393,0.471 -0.738,1.28 -1.474,1.29c-0.275,-0.684 0.363,-1.355 0.644,-1.935c0.896,-1.85 1.774,-4.109 2.12,-6.634c2.011,-2.043 3.368,-4.742 4.515,-7.648Z" style="fill:#3bbe42;"/><path d="M259.075,68.401l0,-0.004c-0.209,-0.517 0.108,-1.036 0.39,-1.494c0.094,-0.156 0.184,-0.301 0.254,-0.444c1.133,-2.341 1.827,-4.512 2.119,-6.632c2.214,-2.252 3.577,-5.27 4.516,-7.649c0.02,-0.006 0.034,-0.008 0.048,-0.008c0.078,0 0.127,0.033 0.146,0.099c-0.392,5.612 -2.351,10.465 -5.992,14.839c-0.089,0.107 -0.175,0.231 -0.266,0.363c-0.301,0.431 -0.642,0.921 -1.211,0.929l-0.004,0l0,0.001Zm7.327,-16.221c-0.013,0 -0.028,0.002 -0.044,0.004c-0.936,2.376 -2.297,5.397 -4.511,7.646c-0.291,2.121 -0.985,4.291 -2.12,6.633c-0.069,0.142 -0.16,0.29 -0.254,0.445c-0.279,0.455 -0.595,0.971 -0.391,1.484c0.563,-0.011 0.902,-0.498 1.199,-0.925c0.091,-0.131 0.178,-0.256 0.267,-0.363c3.64,-4.375 5.598,-9.224 5.989,-14.832c-0.018,-0.06 -0.062,-0.092 -0.135,-0.092Z" style="fill:none;"/></g><g><path d="M220.379,56.509c1.715,3.414 4.043,6.214 7.003,8.386c0.026,2.892 1.09,5.237 1.842,7.094c-1.175,0.262 -2.561,-0.002 -3.593,-0.184c-3.101,-2.197 -5.837,-5.164 -7.832,-8.754c-1.023,-1.84 -1.985,-3.558 -1.936,-6.45c1.344,0.13 3.305,0.205 4.516,-0.092Z" style="fill:#3bbe42;"/><path d="M228.119,72.104c-0.825,0 -1.679,-0.15 -2.366,-0.271l-0.123,-0.023c-3.203,-2.269 -5.913,-5.296 -7.836,-8.756l-0.015,-0.026c-1.013,-1.825 -1.971,-3.547 -1.92,-6.427l0,-0.006l0.005,0.001c0.539,0.052 1.369,0.114 2.26,0.114c0.938,0 1.697,-0.069 2.254,-0.207c1.72,3.416 4.076,6.236 7.007,8.387c0.025,2.665 0.931,4.869 1.659,6.64c0.063,0.156 0.126,0.308 0.186,0.457l0.002,0.005l-0.006,0.002c-0.328,0.073 -0.701,0.11 -1.107,0.11Zm-12.25,-15.497c-0.05,2.874 0.907,4.595 1.92,6.416l0.014,0.026c1.922,3.458 4.63,6.484 7.831,8.753l0.121,0.02c0.686,0.121 1.54,0.272 2.364,0.272c0.403,0 0.773,-0.036 1.099,-0.108c-0.059,-0.147 -0.121,-0.297 -0.184,-0.449c-0.728,-1.774 -1.633,-3.978 -1.657,-6.642c-2.93,-2.146 -5.287,-4.969 -7.003,-8.383c-0.552,0.139 -1.31,0.209 -2.25,0.209c-0.889,0 -1.715,-0.062 -2.255,-0.114Z" style="fill:none;"/></g><g><path d="M240.189,76.32c-0.051,-0.134 0.108,-0.476 -0.092,-0.46c3.599,-0.825 6.852,-1.992 8.845,-4.423c3.984,-0.164 7.262,-1.032 9.491,-2.95c1.12,0.384 -0.528,1.378 -1.198,1.936c-3.998,3.326 -10.159,6.44 -17.046,5.897Z" style="fill:#3bbe42;"/><path d="M241.765,76.388c-0.525,0 -1.056,-0.023 -1.576,-0.062c-0.023,-0.054 -0.014,-0.133 -0.003,-0.21c0.011,-0.092 0.023,-0.185 -0.015,-0.228c-0.015,-0.018 -0.038,-0.022 -0.073,-0.022l-0.002,-0.012c3.178,-0.728 6.713,-1.822 8.843,-4.42c4.284,-0.177 7.388,-1.141 9.492,-2.949c0.234,0.076 0.361,0.186 0.384,0.326c0.059,0.37 -0.622,0.886 -1.168,1.298c-0.151,0.116 -0.294,0.223 -0.409,0.318c-2.153,1.792 -7.973,5.961 -15.473,5.961Zm-1.631,-0.531c0.019,0.003 0.034,0.011 0.046,0.024c0.039,0.047 0.027,0.143 0.015,0.236c-0.01,0.076 -0.019,0.152 -0.002,0.2c0.517,0.04 1.047,0.059 1.572,0.059c7.497,0 13.314,-4.166 15.467,-5.958c0.113,-0.094 0.257,-0.201 0.409,-0.317c0.543,-0.411 1.221,-0.924 1.164,-1.289c-0.023,-0.135 -0.148,-0.243 -0.373,-0.318c-2.1,1.808 -5.207,2.773 -9.49,2.949c-2.119,2.587 -5.637,3.685 -8.808,4.414Z" style="fill:none;"/></g><path d="M240.519,76.448c-14.386,0 -26.088,-11.703 -26.088,-26.089c0,-14.385 11.702,-26.089 26.088,-26.089c14.385,0 26.088,11.704 26.088,26.089c0,14.386 -11.703,26.089 -26.088,26.089Zm0,-51.455c-13.986,0 -25.365,11.379 -25.365,25.366c0,13.986 11.379,25.365 25.365,25.365c13.987,0 25.364,-11.379 25.364,-25.365c0,-13.987 -11.377,-25.366 -25.364,-25.366Z" style="fill:#3bbe42;fill-rule:nonzero;"/></g><path d="M172.108,170.833l137.084,0" style="fill-rule:nonzero;stroke:#009d2b;stroke-width:4.17px;"/><path d="M19.583,267.542c-3.583,0 -6.861,-0.917 -9.833,-2.75c-2.972,-1.834 -5.333,-4.264 -7.083,-7.292c-1.778,-3.056 -2.667,-6.417 -2.667,-10.083l0,-4.584c0,-0.333 0.167,-0.5 0.5,-0.5l11.208,0c0.25,0 0.375,0.167 0.375,0.5l0,4.584c0,2.222 0.736,4.111 2.209,5.666c1.472,1.556 3.236,2.334 5.291,2.334c2.084,0 3.861,-0.792 5.334,-2.375c1.444,-1.611 2.166,-3.486 2.166,-5.625c0,-2.445 -1.597,-4.57 -4.791,-6.375c-1.056,-0.611 -2.723,-1.542 -5,-2.792c-2.25,-1.278 -4.375,-2.486 -6.375,-3.625c-3.667,-2.139 -6.389,-4.819 -8.167,-8.042c-1.778,-3.222 -2.667,-6.875 -2.667,-10.958c0,-3.722 0.903,-7.069 2.709,-10.042c1.805,-2.972 4.194,-5.319 7.166,-7.041c2.973,-1.75 6.181,-2.625 9.625,-2.625c3.556,0 6.806,0.889 9.75,2.666c2.973,1.778 5.348,4.139 7.125,7.084c1.75,2.972 2.625,6.291 2.625,9.958l0,8.208c0,0.278 -0.125,0.417 -0.375,0.417l-11.208,0c-0.278,0 -0.417,-0.139 -0.417,-0.417l-0.083,-8.208c0,-2.333 -0.736,-4.236 -2.208,-5.708c-1.473,-1.445 -3.209,-2.167 -5.209,-2.167c-2.055,0 -3.819,0.778 -5.291,2.333c-1.473,1.556 -2.209,3.403 -2.209,5.542c0,2.194 0.473,4.028 1.417,5.5c0.944,1.472 2.639,2.875 5.083,4.208c0.334,0.195 0.986,0.542 1.959,1.042c0.972,0.5 2.027,1.069 3.166,1.708c1.139,0.639 2.153,1.195 3.042,1.667c0.889,0.444 1.444,0.736 1.667,0.875c3.333,1.861 5.958,4.153 7.875,6.875c1.944,2.694 2.916,6 2.916,9.917c0,3.805 -0.889,7.222 -2.666,10.25c-1.75,3.055 -4.111,5.458 -7.084,7.208c-2.972,1.778 -6.264,2.667 -9.875,2.667Zm38.417,-1l-11.292,0c-0.333,0 -0.5,-0.167 -0.5,-0.5l0.084,-68.709c0,-0.277 0.139,-0.416 0.416,-0.416l11.209,0c0.25,0 0.375,0.139 0.375,0.416l0.125,68.709c0,0.333 -0.139,0.5 -0.417,0.5Zm20.917,0l-11.334,0c-0.25,0 -0.375,-0.167 -0.375,-0.5l0.209,-68.709c0,-0.277 0.125,-0.416 0.375,-0.416l12.208,0c0.278,0 0.514,0.139 0.708,0.416l9.084,13.209l9.125,-13.209c0.194,-0.277 0.416,-0.416 0.666,-0.416l12.334,0c0.25,0 0.375,0.139 0.375,0.416l0.208,68.709c0,0.333 -0.139,0.5 -0.417,0.5l-11.291,0c-0.25,0 -0.375,-0.167 -0.375,-0.5l-0.125,-51l-10.5,15.208l-10.375,-15.208l-0.125,51c0,0.333 -0.125,0.5 -0.375,0.5Zm53.666,0l-11.166,0c-0.334,0 -0.5,-0.167 -0.5,-0.5l0.166,-68.709c0,-0.277 0.139,-0.416 0.417,-0.416l19.208,0c6.139,0 10.986,1.875 14.542,5.625c3.556,3.722 5.333,8.791 5.333,15.208c0,4.722 -0.93,8.819 -2.791,12.292c-1.861,3.472 -4.292,6.139 -7.292,8c-3,1.861 -6.264,2.791 -9.792,2.791l-7.625,0l0,25.209c0,0.333 -0.166,0.5 -0.5,0.5Zm0.5,-57.625l0,19.833l7.625,0c2.139,0 3.986,-1.028 5.542,-3.083c1.556,-2.028 2.333,-4.667 2.333,-7.917c0,-2.611 -0.694,-4.75 -2.083,-6.417c-1.389,-1.666 -3.319,-2.5 -5.792,-2.5l-7.625,0.084Zm67,57.625l-32.291,0c-0.25,0 -0.375,-0.167 -0.375,-0.5l0.083,-68.625c0,-0.334 0.167,-0.5 0.5,-0.5l11.083,0c0.334,0 0.5,0.166 0.5,0.5l-0.083,56.833l20.583,0c0.334,0 0.5,0.167 0.5,0.5l0,11.292c0,0.333 -0.166,0.5 -0.5,0.5Zm39.709,0l-32.292,0c-0.278,0 -0.417,-0.167 -0.417,-0.5l0.125,-68.709c0,-0.277 0.125,-0.416 0.375,-0.416l32.125,0c0.25,0 0.375,0.166 0.375,0.5l0,11.208c0,0.278 -0.125,0.417 -0.375,0.417l-20.5,0l0,15.583l20.5,0c0.25,0 0.375,0.139 0.375,0.417l0.125,11.291c0,0.278 -0.139,0.417 -0.416,0.417l-20.584,0l0,17.5l20.584,0c0.277,0 0.416,0.167 0.416,0.5l0,11.375c0,0.278 -0.139,0.417 -0.416,0.417Zm7,-50.5c0,-3.75 0,5.208 0,4.875l0,-4.875Zm66.208,50.5l-11.292,0c-0.277,0 -0.416,-0.167 -0.416,-0.5l0,-57l-13,0c-0.334,0 -0.5,-0.167 -0.5,-0.5l0.125,-11.209c0,-0.277 0.125,-0.416 0.375,-0.416l38,0c0.333,0 0.5,0.139 0.5,0.416l0,11.209c0,0.333 -0.125,0.5 -0.375,0.5l-13.125,0l0.125,57c0,0.333 -0.139,0.5 -0.417,0.5Zm30.417,0l-11.334,0c-0.25,0 -0.375,-0.167 -0.375,-0.5l0.209,-68.709c0,-0.277 0.125,-0.416 0.375,-0.416l20.208,0c3.611,0 6.931,0.889 9.958,2.666c3.028,1.778 5.445,4.139 7.25,7.084c1.806,2.972 2.709,6.333 2.709,10.083c0,2.444 -0.375,4.653 -1.125,6.625c-0.723,1.972 -1.584,3.639 -2.584,5c-1,1.361 -1.902,2.375 -2.708,3.042c3.611,4 5.417,8.708 5.417,14.125l0.083,20.5c0,0.333 -0.167,0.5 -0.5,0.5l-11.292,0c-0.277,0 -0.416,-0.098 -0.416,-0.292l0,-20.708c0,-2.417 -0.848,-4.5 -2.542,-6.25c-1.694,-1.778 -3.778,-2.667 -6.25,-2.667l-6.583,0l-0.125,29.417c0,0.333 -0.125,0.5 -0.375,0.5Zm0.5,-57.625l0,15.708l8.583,0c2.056,0 3.889,-0.764 5.5,-2.292c1.611,-1.527 2.417,-3.389 2.417,-5.583c0,-2.139 -0.792,-3.972 -2.375,-5.5c-1.556,-1.556 -3.403,-2.333 -5.542,-2.333l-8.583,0Zm32.583,57.125l12.417,-68.709c0.055,-0.277 0.222,-0.416 0.5,-0.416l14.5,0c0.25,0 0.416,0.139 0.5,0.416l11.875,68.709c0.083,0.333 -0.042,0.5 -0.375,0.5l-11.125,0c-0.25,0 -0.417,-0.167 -0.5,-0.5l-1.084,-7.292l-13.625,0l-1.083,7.292c-0.056,0.333 -0.222,0.5 -0.5,0.5l-11.083,0c-0.278,0 -0.417,-0.167 -0.417,-0.5Zm19.583,-46.125l-4.5,28.125l9.625,0l-4.125,-28.125l-0.583,-3.667l-0.417,3.667Zm38.334,46.625l-11.334,0c-0.333,0 -0.5,-0.167 -0.5,-0.5l0.125,-68.709c0,-0.277 0.125,-0.416 0.375,-0.416l11.209,0c0.277,0 0.416,0.139 0.416,0.416l0.084,68.709c0,0.333 -0.125,0.5 -0.375,0.5Zm20.083,0l-10,0c-0.528,0 -0.792,-0.236 -0.792,-0.709l-0.125,-68.083c0,-0.556 0.278,-0.833 0.834,-0.833l9,0l16.875,39.416l-0.5,-38.583c0,-0.556 0.305,-0.833 0.916,-0.833l9.875,0c0.417,0 0.625,0.277 0.625,0.833l0.084,68.167c0,0.416 -0.167,0.625 -0.5,0.625l-8.792,0l-17.292,-36.792l0.709,36c0,0.528 -0.306,0.792 -0.917,0.792Z" style="fill:#009d2b;fill-rule:nonzero;"/><path d="M283.038,264.488l-33.846,0c-0.303,0 -0.454,-0.156 -0.454,-0.468l0,-10.576c0,-0.13 0.063,-0.26 0.189,-0.39l22.388,-31.765c0.429,-0.547 0.782,-1.275 1.059,-2.186c0.277,-0.91 0.416,-1.704 0.416,-2.38c0,-1.821 -0.643,-3.499 -1.929,-5.034c-1.26,-1.509 -2.861,-2.263 -4.803,-2.263c-1.865,0 -3.453,0.728 -4.764,2.185c-1.286,1.457 -1.929,3.317 -1.929,5.58l0,4.566c0,0.312 -0.151,0.468 -0.454,0.468l-10.173,0c-0.252,0 -0.378,-0.156 -0.378,-0.468l0,-4.566c0,-3.512 0.832,-6.699 2.496,-9.561c1.664,-2.861 3.845,-5.138 6.542,-6.829c2.698,-1.691 5.585,-2.536 8.66,-2.536c3.278,0 6.24,0.858 8.888,2.575c2.672,1.717 4.815,3.981 6.428,6.79c1.589,2.81 2.383,5.841 2.383,9.093c0,2.055 -0.34,4.15 -1.021,6.283c-0.706,2.107 -1.664,3.98 -2.874,5.619l-17.245,24.429l20.421,0c0.253,0 0.379,0.13 0.379,0.39l0,10.576c0,0.312 -0.126,0.468 -0.379,0.468Z" style="fill:#fff;fill-rule:nonzero;stroke:#009d2b;stroke-width:4.07px;stroke-linecap:butt;stroke-linejoin:round;stroke-miterlimit:1.41421;"/></svg>