<?xml version="1.0" encoding="UTF-8" standalone="no"?><!DOCTYPE svg PUBLIC "-//W3C//DTD SVG 1.1//EN" "http://www.w3.org/Graphics/SVG/1.1/DTD/svg11.dtd"><svg width="100%" height="100%" viewBox="0 0 116 65" version="1.1" xmlns="http://www.w3.org/2000/svg" xmlns:xlink="http://www.w3.org/1999/xlink" xml:space="preserve" xmlns:serif="http://www.serif.com/" style="fill-rule:evenodd;clip-rule:evenodd;stroke-linecap:round;"><g><g><g><path d="M55.87,4.468l0.009,0l-0.009,0Z" style="fill:none;fill-rule:nonzero;"/><path d="M60.318,2.321c-0.819,-0.221 -1.68,-0.34 -2.565,-0.34c-0.778,0 -1.534,0.091 -2.261,0.266c-4.383,1.025 -7.669,4.973 -7.669,9.663c0,2.412 1.155,5.369 2.1,7.154c1.302,2.387 5.478,9.779 6.713,11.977l1.124,1.978l1.081,-1.953c0.046,-0.05 5.089,-9.044 6.773,-11.974c1.005,-1.76 2.075,-4.872 2.075,-7.182c0,-4.581 -3.139,-8.455 -7.371,-9.589Zm3.119,15.526c-0.291,0.514 -0.683,1.203 -1.131,1.995c-0.018,0.035 -0.039,0.069 -0.059,0.108c-1.387,2.45 -3.287,5.82 -4.494,7.987c-1.247,-2.18 -3.157,-5.59 -4.487,-7.987c-0.022,-0.035 -0.042,-0.07 -0.06,-0.105c-0.447,-0.809 -0.825,-1.495 -1.085,-1.97c-0.896,-1.656 -1.817,-4.151 -1.817,-5.965c0,-3.237 2.105,-6.009 5.009,-7.024c0.766,-0.27 1.59,-0.416 2.443,-0.416c0.931,0 1.838,0.175 2.685,0.507c0.944,0.368 1.816,0.935 2.559,1.677c1.395,1.421 2.173,3.255 2.173,5.257c-0.001,1.792 -0.917,4.487 -1.736,5.936Z" style="fill:#3bbe42;fill-rule:nonzero;"/></g><path d="M53.266,19.95l-0.06,0l0,-0.105c0.018,0.035 0.039,0.07 0.06,0.105Z" style="fill:#3bbe42;fill-rule:nonzero;"/><path d="M62.306,19.841l0,0.109l-0.059,0c0.02,-0.039 0.041,-0.074 0.059,-0.109Z" style="fill:#3bbe42;fill-rule:nonzero;"/></g><path d="M56.097,11.948c-0.715,-0.214 -1.442,-0.415 -2.233,-0.553c-0.165,-0.535 -0.271,-1.076 -0.332,-1.703c-0.019,-0.199 -0.063,-0.459 -0.022,-0.641c0.059,-0.258 0.644,-0.809 0.84,-0.995c0.383,-0.361 0.716,-0.543 1.106,-0.708c0.294,-0.124 0.994,0 1.349,0.089c0.381,0.095 0.71,0.246 0.973,0.42c0.105,0.508 0.169,1.04 0.243,1.614c0.023,0.176 0.093,0.413 0.067,0.553c-0.033,0.176 -0.344,0.345 -0.509,0.487c-0.523,0.449 -1.05,0.953 -1.482,1.437Z" style="fill:#3bbe42;"/><path d="M56.098,11.949l-0.001,0c-0.68,-0.203 -1.422,-0.411 -2.233,-0.553c-0.168,-0.542 -0.273,-1.084 -0.333,-1.703c-0.004,-0.039 -0.008,-0.08 -0.013,-0.122c-0.02,-0.175 -0.043,-0.373 -0.009,-0.52c0.059,-0.257 0.644,-0.81 0.836,-0.992l0.004,-0.004c0.382,-0.361 0.719,-0.544 1.107,-0.708c0.082,-0.034 0.203,-0.052 0.358,-0.052c0.316,0 0.719,0.073 0.992,0.141c0.354,0.088 0.691,0.234 0.973,0.42c0.096,0.467 0.159,0.955 0.225,1.472l0.019,0.143c0.007,0.056 0.018,0.116 0.031,0.18c0.026,0.136 0.053,0.277 0.035,0.373c-0.024,0.129 -0.197,0.255 -0.35,0.366c-0.058,0.043 -0.114,0.083 -0.159,0.122c-0.557,0.477 -1.069,0.974 -1.482,1.437l0,0Zm-0.284,-4.652c-0.155,0 -0.275,0.018 -0.357,0.053c-0.388,0.163 -0.724,0.346 -1.106,0.707l-0.004,0.004c-0.192,0.182 -0.777,0.735 -0.836,0.99c-0.033,0.147 -0.011,0.345 0.009,0.519c0.005,0.043 0.01,0.084 0.013,0.122c0.06,0.62 0.166,1.161 0.332,1.703c0.811,0.141 1.552,0.348 2.232,0.552c0.413,-0.463 0.925,-0.96 1.481,-1.437c0.045,-0.039 0.101,-0.08 0.16,-0.122c0.152,-0.111 0.324,-0.237 0.349,-0.364c0.018,-0.096 -0.009,-0.237 -0.036,-0.372c-0.012,-0.065 -0.024,-0.125 -0.031,-0.181l-0.018,-0.142c-0.067,-0.517 -0.129,-1.006 -0.225,-1.472c-0.281,-0.185 -0.618,-0.33 -0.972,-0.419c-0.272,-0.068 -0.675,-0.141 -0.991,-0.141Z" style="fill:none;fill-rule:nonzero;"/><path d="M61.825,9.206c0.55,0.113 0.983,0.344 1.393,0.597c0.145,0.364 0.278,0.768 0.398,1.194c0.118,0.414 0.275,0.906 0.222,1.371c-0.036,0.306 -0.273,0.815 -0.421,1.084c-0.177,0.323 -0.405,0.627 -0.641,0.84c-0.477,-0.246 -0.975,-0.469 -1.504,-0.663c-0.046,-0.762 -0.195,-1.402 -0.376,-2.057c-0.049,-0.178 -0.188,-0.477 -0.177,-0.619c0.015,-0.187 0.423,-0.673 0.531,-0.84c0.232,-0.358 0.394,-0.632 0.575,-0.907Z" style="fill:#3bbe42;"/><path d="M62.776,14.294l-0.001,-0.001c-0.494,-0.255 -1,-0.478 -1.503,-0.663c-0.049,-0.788 -0.21,-1.455 -0.377,-2.058c-0.017,-0.058 -0.042,-0.129 -0.069,-0.205c-0.054,-0.149 -0.115,-0.318 -0.108,-0.414c0.011,-0.137 0.232,-0.434 0.393,-0.65c0.059,-0.079 0.109,-0.146 0.138,-0.191c0.111,-0.171 0.204,-0.321 0.295,-0.466c0.095,-0.153 0.185,-0.297 0.28,-0.441c0.564,0.116 1.004,0.355 1.395,0.597c0.138,0.347 0.272,0.748 0.399,1.195c0.009,0.033 0.018,0.066 0.028,0.101c0.113,0.394 0.242,0.842 0.192,1.27c-0.036,0.318 -0.29,0.848 -0.42,1.084c-0.183,0.335 -0.411,0.634 -0.641,0.841l-0.001,0.001Zm-0.951,-5.087c-0.093,0.143 -0.184,0.288 -0.279,0.441c-0.091,0.144 -0.184,0.294 -0.295,0.465c-0.029,0.045 -0.08,0.113 -0.138,0.192c-0.161,0.216 -0.383,0.511 -0.393,0.648c-0.007,0.095 0.054,0.264 0.108,0.414c0.027,0.075 0.053,0.146 0.069,0.205c0.167,0.603 0.328,1.269 0.376,2.057c0.503,0.184 1.008,0.407 1.503,0.662c0.229,-0.207 0.457,-0.506 0.64,-0.84c0.129,-0.236 0.383,-0.766 0.42,-1.083c0.049,-0.428 -0.08,-0.875 -0.192,-1.27c-0.01,-0.034 -0.02,-0.067 -0.029,-0.101c-0.127,-0.446 -0.261,-0.848 -0.398,-1.194c-0.39,-0.241 -0.829,-0.48 -1.392,-0.596Z" style="fill:none;fill-rule:nonzero;"/><path d="M58.132,10.157c0.941,0.157 1.728,0.468 2.499,0.796c0.173,0.581 0.382,1.204 0.486,1.902c0.033,0.22 0.104,0.535 0.067,0.729c-0.033,0.172 -0.272,0.36 -0.421,0.509c-0.478,0.478 -0.931,0.933 -1.503,1.283c-0.945,-0.169 -1.791,-0.436 -2.543,-0.797c-0.156,-0.607 -0.286,-1.234 -0.42,-1.901c-0.039,-0.194 -0.154,-0.453 -0.133,-0.619c0.018,-0.144 0.273,-0.384 0.42,-0.531c0.494,-0.494 1.069,-0.953 1.548,-1.371Z" style="fill:#3bbe42;"/><path d="M59.26,15.377l-0.001,0c-0.93,-0.166 -1.786,-0.434 -2.543,-0.796c-0.164,-0.639 -0.303,-1.317 -0.421,-1.903c-0.013,-0.066 -0.035,-0.139 -0.058,-0.215c-0.043,-0.145 -0.088,-0.295 -0.074,-0.405c0.016,-0.131 0.226,-0.339 0.379,-0.49c0.014,-0.015 0.028,-0.028 0.041,-0.041c0.355,-0.355 0.746,-0.687 1.124,-1.008c0.149,-0.126 0.289,-0.246 0.424,-0.363c0.951,0.158 1.757,0.48 2.5,0.796c0.028,0.092 0.056,0.186 0.085,0.28c0.155,0.508 0.314,1.035 0.402,1.622c0.007,0.044 0.015,0.091 0.023,0.14c0.034,0.204 0.074,0.434 0.044,0.59c-0.026,0.138 -0.183,0.285 -0.322,0.415c-0.035,0.033 -0.068,0.065 -0.099,0.095l-0.005,0.004c-0.477,0.479 -0.928,0.93 -1.498,1.278l-0.001,0.001Zm-1.128,-5.219c-0.134,0.117 -0.275,0.237 -0.424,0.363c-0.378,0.321 -0.769,0.653 -1.123,1.008c-0.013,0.013 -0.027,0.026 -0.041,0.041c-0.145,0.142 -0.363,0.358 -0.379,0.489c-0.014,0.109 0.031,0.259 0.075,0.403c0.023,0.077 0.044,0.149 0.058,0.215c0.117,0.586 0.256,1.264 0.42,1.902c0.756,0.362 1.611,0.63 2.541,0.795c0.57,-0.348 1.021,-0.799 1.498,-1.277l0.006,-0.005c0.03,-0.03 0.063,-0.061 0.098,-0.095c0.139,-0.129 0.296,-0.276 0.321,-0.413c0.03,-0.156 -0.009,-0.386 -0.043,-0.589c-0.008,-0.05 -0.016,-0.097 -0.023,-0.14c-0.088,-0.588 -0.248,-1.114 -0.402,-1.622c-0.029,-0.094 -0.057,-0.188 -0.084,-0.28c-0.743,-0.315 -1.548,-0.636 -2.498,-0.795Z" style="fill:none;fill-rule:nonzero;"/><path d="M56.65,14.646c0.783,0.345 1.607,0.648 2.588,0.796c0.095,0.253 0.144,0.522 0.221,0.818c0.063,0.245 0.236,0.583 0.199,0.819c-0.038,0.236 -0.593,0.563 -0.863,0.685c-0.811,0.366 -1.69,0.347 -2.587,0.044c-0.341,-0.115 -0.905,-0.34 -1.083,-0.531c-0.157,-0.166 -0.259,-0.519 -0.332,-0.773c-0.089,-0.31 -0.123,-0.606 -0.155,-0.951c0.712,-0.261 1.38,-0.566 2.012,-0.907Z" style="fill:#3bbe42;"/><path d="M57.509,18.038c-0.414,0 -0.852,-0.076 -1.301,-0.228c-0.396,-0.135 -0.918,-0.354 -1.084,-0.532c-0.158,-0.168 -0.263,-0.533 -0.333,-0.774c-0.091,-0.32 -0.125,-0.633 -0.154,-0.951c0.686,-0.253 1.363,-0.558 2.013,-0.908c0.693,0.305 1.542,0.639 2.588,0.796c0.068,0.179 0.112,0.366 0.159,0.563c0.02,0.083 0.04,0.169 0.063,0.256c0.02,0.075 0.049,0.157 0.08,0.244c0.071,0.202 0.145,0.411 0.119,0.575c-0.038,0.24 -0.609,0.571 -0.863,0.686c-0.402,0.182 -0.836,0.273 -1.287,0.273Zm-0.859,-3.391c-0.649,0.35 -1.326,0.655 -2.012,0.907c0.031,0.317 0.064,0.629 0.156,0.949c0.069,0.241 0.174,0.605 0.332,0.773c0.166,0.178 0.687,0.397 1.083,0.531c0.449,0.151 0.886,0.229 1.3,0.229c0.451,0 0.884,-0.092 1.286,-0.273c0.254,-0.115 0.824,-0.446 0.862,-0.685c0.026,-0.163 -0.048,-0.372 -0.119,-0.573c-0.031,-0.087 -0.061,-0.17 -0.08,-0.244c-0.023,-0.088 -0.043,-0.173 -0.063,-0.256c-0.047,-0.198 -0.091,-0.385 -0.158,-0.563c-1.046,-0.156 -1.895,-0.489 -2.587,-0.795Z" style="fill:none;fill-rule:nonzero;"/><g><path d="M60.078,6.331c0.016,0.326 0.041,0.657 -0.022,0.951c-0.842,0.065 -1.606,0.207 -2.212,0.508c-0.582,-0.361 -1.326,-0.56 -2.255,-0.574c-0.014,-0.319 -0.012,-0.652 -0.044,-0.951c1.206,-0.564 3.391,-0.535 4.533,0.066Z" style="fill:#3bbe42;"/><path d="M57.844,7.792l0,0c-0.592,-0.367 -1.35,-0.561 -2.255,-0.575c-0.006,-0.1 -0.008,-0.202 -0.011,-0.301c-0.006,-0.218 -0.012,-0.445 -0.035,-0.651c0.551,-0.259 1.349,-0.406 2.189,-0.406c0.923,0 1.778,0.172 2.346,0.471c0.003,0.032 0.004,0.062 0.006,0.093c0.015,0.292 0.03,0.593 -0.027,0.859c-0.962,0.076 -1.664,0.237 -2.212,0.51l-0.001,0Zm-0.112,-1.931c-0.84,0 -1.637,0.148 -2.187,0.405c0.023,0.205 0.029,0.431 0.035,0.65c0.003,0.099 0.006,0.201 0.01,0.3c0.904,0.013 1.663,0.206 2.254,0.573c0.548,-0.272 1.251,-0.434 2.212,-0.508c0.055,-0.265 0.04,-0.566 0.025,-0.858c-0.001,-0.03 -0.003,-0.061 -0.004,-0.092c-0.568,-0.298 -1.422,-0.47 -2.345,-0.47Z" style="fill:none;fill-rule:nonzero;"/></g><g><path d="M60.189,6.375c1.486,0.622 2.554,1.662 3.206,3.118c-0.06,0.065 -0.102,0.149 -0.155,0.221c-0.407,-0.255 -0.872,-0.454 -1.393,-0.596c-0.51,-0.663 -0.99,-1.354 -1.702,-1.814c0.022,-0.302 0.059,-0.589 0.044,-0.929Z" style="fill:#3bbe42;"/><path d="M63.241,9.716l-0.001,-0.001c-0.404,-0.253 -0.872,-0.453 -1.393,-0.596c-0.059,-0.076 -0.116,-0.151 -0.173,-0.226c-0.442,-0.58 -0.899,-1.18 -1.53,-1.588c0.004,-0.066 0.01,-0.131 0.015,-0.196c0.02,-0.23 0.04,-0.468 0.028,-0.734l0,-0.001l0.002,0c1.478,0.619 2.557,1.668 3.207,3.119c-0.038,0.042 -0.069,0.09 -0.098,0.137c-0.018,0.029 -0.037,0.058 -0.057,0.085l0,0.001Zm-3.051,-3.339c0.011,0.265 -0.009,0.503 -0.029,0.732c-0.005,0.065 -0.011,0.13 -0.016,0.195c0.632,0.407 1.089,1.007 1.531,1.587c0.057,0.076 0.114,0.151 0.172,0.226c0.52,0.142 0.989,0.343 1.392,0.596c0.019,-0.027 0.038,-0.056 0.055,-0.084c0.03,-0.047 0.061,-0.096 0.099,-0.136c-0.65,-1.448 -1.727,-2.497 -3.204,-3.116Z" style="fill:none;fill-rule:nonzero;"/></g><g><path d="M53.422,9.051c0.043,0.864 0.126,1.688 0.376,2.344c-0.396,0.593 -0.762,1.215 -0.885,2.079c-0.31,0.099 -0.79,0.078 -1.106,0c-0.4,-0.523 -0.371,-1.586 -0.243,-2.366c0.127,-0.778 0.394,-1.499 0.708,-2.013c0.308,-0.14 0.786,-0.124 1.15,-0.044Z" style="fill:#3bbe42;"/><path d="M52.397,13.542c-0.204,0 -0.418,-0.024 -0.59,-0.067c-0.483,-0.631 -0.309,-1.972 -0.244,-2.367c0.121,-0.742 0.379,-1.476 0.708,-2.013c0.151,-0.069 0.357,-0.106 0.594,-0.106c0.181,0 0.378,0.022 0.557,0.061c0.04,0.774 0.115,1.656 0.377,2.345c-0.379,0.568 -0.759,1.196 -0.885,2.079c-0.137,0.045 -0.316,0.068 -0.517,0.068Zm0.468,-4.55c-0.237,0 -0.442,0.036 -0.593,0.105c-0.327,0.536 -0.586,1.27 -0.706,2.011c-0.065,0.396 -0.239,1.735 0.242,2.365c0.171,0.042 0.386,0.066 0.589,0.066c0.201,0 0.379,-0.023 0.516,-0.066c0.125,-0.883 0.505,-1.511 0.884,-2.078c-0.263,-0.689 -0.338,-1.571 -0.377,-2.344c-0.177,-0.038 -0.375,-0.059 -0.555,-0.059Z" style="fill:none;fill-rule:nonzero;"/></g><g><path d="M63.926,12.523c0.025,-0.003 0.039,0.005 0.044,0.022c-0.105,1.514 -0.682,2.653 -1.437,3.56c-0.095,0.114 -0.177,0.308 -0.354,0.31c-0.066,-0.164 0.087,-0.325 0.155,-0.464c0.214,-0.444 0.425,-0.987 0.508,-1.593c0.483,-0.49 0.809,-1.137 1.084,-1.835Z" style="fill:#3bbe42;"/><path d="M62.178,16.416l0,-0.001c-0.05,-0.124 0.026,-0.248 0.094,-0.358c0.022,-0.038 0.044,-0.073 0.061,-0.107c0.272,-0.562 0.438,-1.083 0.508,-1.592c0.532,-0.54 0.858,-1.264 1.084,-1.835c0.005,-0.002 0.008,-0.002 0.012,-0.002c0.018,0 0.03,0.008 0.035,0.024c-0.095,1.346 -0.565,2.511 -1.439,3.561c-0.021,0.026 -0.042,0.055 -0.063,0.087c-0.073,0.103 -0.154,0.221 -0.291,0.223l-0.001,0l0,0Zm1.758,-3.893c-0.003,0 -0.006,0.001 -0.01,0.001c-0.225,0.57 -0.551,1.295 -1.083,1.835c-0.07,0.509 -0.236,1.03 -0.509,1.592c-0.016,0.034 -0.038,0.07 -0.06,0.107c-0.067,0.109 -0.143,0.233 -0.094,0.356c0.135,-0.003 0.216,-0.119 0.288,-0.222c0.021,-0.031 0.042,-0.061 0.064,-0.087c0.873,-1.05 1.343,-2.214 1.437,-3.56c-0.004,-0.014 -0.015,-0.022 -0.033,-0.022Z" style="fill:none;fill-rule:nonzero;"/></g><g><path d="M52.891,13.562c0.412,0.82 0.97,1.491 1.681,2.013c0.006,0.694 0.261,1.257 0.442,1.702c-0.282,0.063 -0.615,0 -0.863,-0.044c-0.744,-0.527 -1.4,-1.239 -1.879,-2.101c-0.246,-0.441 -0.477,-0.854 -0.465,-1.548c0.323,0.031 0.793,0.05 1.084,-0.022Z" style="fill:#3bbe42;"/><path d="M54.749,17.305c-0.198,0 -0.403,-0.036 -0.568,-0.065l-0.03,-0.006c-0.769,-0.544 -1.419,-1.271 -1.88,-2.101l-0.004,-0.006c-0.243,-0.438 -0.473,-0.852 -0.461,-1.543l0,-0.001l0.001,0c0.13,0.012 0.329,0.027 0.543,0.027c0.225,0 0.407,-0.016 0.541,-0.049c0.413,0.82 0.978,1.496 1.681,2.013c0.007,0.639 0.224,1.168 0.399,1.593c0.015,0.038 0.03,0.074 0.044,0.11l0.001,0.001l-0.002,0c-0.078,0.018 -0.168,0.027 -0.265,0.027Zm-2.94,-3.719c-0.012,0.689 0.217,1.102 0.46,1.54l0.004,0.006c0.461,0.83 1.111,1.556 1.879,2.101l0.029,0.004c0.165,0.029 0.37,0.066 0.568,0.066c0.096,0 0.185,-0.009 0.263,-0.026c-0.014,-0.036 -0.029,-0.072 -0.044,-0.108c-0.175,-0.426 -0.392,-0.955 -0.398,-1.594c-0.703,-0.515 -1.268,-1.193 -1.68,-2.012c-0.133,0.033 -0.315,0.05 -0.54,0.05c-0.213,0 -0.412,-0.015 -0.541,-0.027Z" style="fill:none;fill-rule:nonzero;"/></g><g><path d="M57.645,18.317c-0.012,-0.032 0.026,-0.114 -0.022,-0.111c0.864,-0.198 1.645,-0.478 2.123,-1.061c0.956,-0.039 1.743,-0.248 2.278,-0.708c0.269,0.092 -0.127,0.331 -0.288,0.465c-0.959,0.798 -2.438,1.545 -4.091,1.415Z" style="fill:#3bbe42;"/><path d="M58.024,18.333c-0.126,0 -0.254,-0.005 -0.379,-0.015c-0.005,-0.013 -0.003,-0.032 0,-0.05c0.002,-0.022 0.005,-0.045 -0.004,-0.055c-0.003,-0.004 -0.009,-0.005 -0.018,-0.005l0,-0.003c0.763,-0.175 1.611,-0.437 2.122,-1.061c1.029,-0.042 1.774,-0.274 2.278,-0.708c0.057,0.019 0.087,0.045 0.093,0.079c0.014,0.088 -0.15,0.212 -0.281,0.311c-0.036,0.028 -0.07,0.054 -0.098,0.077c-0.517,0.429 -1.913,1.43 -3.713,1.43Zm-0.392,-0.127c0.005,0 0.008,0.002 0.011,0.005c0.01,0.012 0.007,0.035 0.004,0.057c-0.003,0.018 -0.005,0.037 -0.001,0.048c0.124,0.01 0.252,0.014 0.378,0.014c1.799,0 3.195,-1 3.712,-1.43c0.027,-0.022 0.061,-0.048 0.098,-0.076c0.13,-0.098 0.293,-0.221 0.279,-0.309c-0.005,-0.033 -0.035,-0.058 -0.089,-0.077c-0.504,0.434 -1.25,0.666 -2.278,0.708c-0.508,0.621 -1.353,0.885 -2.114,1.06Z" style="fill:none;fill-rule:nonzero;"/></g><path d="M57.725,18.347c-3.453,0 -6.262,-2.808 -6.262,-6.261c0,-3.452 2.809,-6.261 6.262,-6.261c3.452,0 6.261,2.809 6.261,6.261c0,3.453 -2.809,6.261 -6.261,6.261Zm0,-12.349c-3.357,0 -6.088,2.731 -6.088,6.088c0,3.357 2.731,6.088 6.088,6.088c3.356,0 6.087,-2.731 6.087,-6.088c0,-3.357 -2.731,-6.088 -6.087,-6.088Z" style="fill:#3bbe42;fill-rule:nonzero;"/></g><path d="M41.306,41l32.9,0" style="fill:none;fill-rule:nonzero;stroke:#009d2b;stroke-width:1px;"/><path d="M4.7,64.21c-0.86,0 -1.647,-0.22 -2.36,-0.66c-0.713,-0.44 -1.28,-1.023 -1.7,-1.75c-0.427,-0.733 -0.64,-1.54 -0.64,-2.42l0,-1.1c0,-0.08 0.04,-0.12 0.12,-0.12l2.69,0c0.06,0 0.09,0.04 0.09,0.12l0,1.1c0,0.533 0.177,0.987 0.53,1.36c0.353,0.373 0.777,0.56 1.27,0.56c0.5,0 0.927,-0.19 1.28,-0.57c0.347,-0.387 0.52,-0.837 0.52,-1.35c0,-0.587 -0.383,-1.097 -1.15,-1.53c-0.253,-0.147 -0.653,-0.37 -1.2,-0.67c-0.54,-0.307 -1.05,-0.597 -1.53,-0.87c-0.88,-0.513 -1.533,-1.157 -1.96,-1.93c-0.427,-0.773 -0.64,-1.65 -0.64,-2.63c0,-0.893 0.217,-1.697 0.65,-2.41c0.433,-0.713 1.007,-1.277 1.72,-1.69c0.713,-0.42 1.483,-0.63 2.31,-0.63c0.853,0 1.633,0.213 2.34,0.64c0.713,0.427 1.283,0.993 1.71,1.7c0.42,0.713 0.63,1.51 0.63,2.39l0,1.97c0,0.067 -0.03,0.1 -0.09,0.1l-2.69,0c-0.067,0 -0.1,-0.033 -0.1,-0.1l-0.02,-1.97c0,-0.56 -0.177,-1.017 -0.53,-1.37c-0.353,-0.347 -0.77,-0.52 -1.25,-0.52c-0.493,0 -0.917,0.187 -1.27,0.56c-0.353,0.373 -0.53,0.817 -0.53,1.33c0,0.527 0.113,0.967 0.34,1.32c0.227,0.353 0.633,0.69 1.22,1.01c0.08,0.047 0.237,0.13 0.47,0.25c0.233,0.12 0.487,0.257 0.76,0.41c0.273,0.153 0.517,0.287 0.73,0.4c0.213,0.107 0.347,0.177 0.4,0.21c0.8,0.447 1.43,0.997 1.89,1.65c0.467,0.647 0.7,1.44 0.7,2.38c0,0.913 -0.213,1.733 -0.64,2.46c-0.42,0.733 -0.987,1.31 -1.7,1.73c-0.713,0.427 -1.503,0.64 -2.37,0.64Zm9.22,-0.24l-2.71,0c-0.08,0 -0.12,-0.04 -0.12,-0.12l0.02,-16.49c0,-0.067 0.033,-0.1 0.1,-0.1l2.69,0c0.06,0 0.09,0.033 0.09,0.1l0.03,16.49c0,0.08 -0.033,0.12 -0.1,0.12Zm5.02,0l-2.72,0c-0.06,0 -0.09,-0.04 -0.09,-0.12l0.05,-16.49c0,-0.067 0.03,-0.1 0.09,-0.1l2.93,0c0.067,0 0.123,0.033 0.17,0.1l2.18,3.17l2.19,-3.17c0.047,-0.067 0.1,-0.1 0.16,-0.1l2.96,0c0.06,0 0.09,0.033 0.09,0.1l0.05,16.49c0,0.08 -0.033,0.12 -0.1,0.12l-2.71,0c-0.06,0 -0.09,-0.04 -0.09,-0.12l-0.03,-12.24l-2.52,3.65l-2.49,-3.65l-0.03,12.24c0,0.08 -0.03,0.12 -0.09,0.12Zm12.88,0l-2.68,0c-0.08,0 -0.12,-0.04 -0.12,-0.12l0.04,-16.49c0,-0.067 0.033,-0.1 0.1,-0.1l4.61,0c1.473,0 2.637,0.45 3.49,1.35c0.853,0.893 1.28,2.11 1.28,3.65c0,1.133 -0.223,2.117 -0.67,2.95c-0.447,0.833 -1.03,1.473 -1.75,1.92c-0.72,0.447 -1.503,0.67 -2.35,0.67l-1.83,0l0,6.05c0,0.08 -0.04,0.12 -0.12,0.12Zm0.12,-13.83l0,4.76l1.83,0c0.513,0 0.957,-0.247 1.33,-0.74c0.373,-0.487 0.56,-1.12 0.56,-1.9c0,-0.627 -0.167,-1.14 -0.5,-1.54c-0.333,-0.4 -0.797,-0.6 -1.39,-0.6l-1.83,0.02Zm16.08,13.83l-7.75,0c-0.06,0 -0.09,-0.04 -0.09,-0.12l0.02,-16.47c0,-0.08 0.04,-0.12 0.12,-0.12l2.66,0c0.08,0 0.12,0.04 0.12,0.12l-0.02,13.64l4.94,0c0.08,0 0.12,0.04 0.12,0.12l0,2.71c0,0.08 -0.04,0.12 -0.12,0.12Zm9.53,0l-7.75,0c-0.067,0 -0.1,-0.04 -0.1,-0.12l0.03,-16.49c0,-0.067 0.03,-0.1 0.09,-0.1l7.71,0c0.06,0 0.09,0.04 0.09,0.12l0,2.69c0,0.067 -0.03,0.1 -0.09,0.1l-4.92,0l0,3.74l4.92,0c0.06,0 0.09,0.033 0.09,0.1l0.03,2.71c0,0.067 -0.033,0.1 -0.1,0.1l-4.94,0l0,4.2l4.94,0c0.067,0 0.1,0.04 0.1,0.12l0,2.73c0,0.067 -0.033,0.1 -0.1,0.1Zm1.68,-12.12c0,-0.9 0,1.25 0,1.17l0,-1.17Zm15.89,12.12l-2.71,0c-0.067,0 -0.1,-0.04 -0.1,-0.12l0,-13.68l-3.12,0c-0.08,0 -0.12,-0.04 -0.12,-0.12l0.03,-2.69c0,-0.067 0.03,-0.1 0.09,-0.1l9.12,0c0.08,0 0.12,0.033 0.12,0.1l0,2.69c0,0.08 -0.03,0.12 -0.09,0.12l-3.15,0l0.03,13.68c0,0.08 -0.033,0.12 -0.1,0.12Zm7.3,0l-2.72,0c-0.06,0 -0.09,-0.04 -0.09,-0.12l0.05,-16.49c0,-0.067 0.03,-0.1 0.09,-0.1l4.85,0c0.867,0 1.663,0.213 2.39,0.64c0.727,0.427 1.307,0.993 1.74,1.7c0.433,0.713 0.65,1.52 0.65,2.42c0,0.587 -0.09,1.117 -0.27,1.59c-0.173,0.473 -0.38,0.873 -0.62,1.2c-0.24,0.327 -0.457,0.57 -0.65,0.73c0.867,0.96 1.3,2.09 1.3,3.39l0.02,4.92c0,0.08 -0.04,0.12 -0.12,0.12l-2.71,0c-0.067,0 -0.1,-0.023 -0.1,-0.07l0,-4.97c0,-0.58 -0.203,-1.08 -0.61,-1.5c-0.407,-0.427 -0.907,-0.64 -1.5,-0.64l-1.58,0l-0.03,7.06c0,0.08 -0.03,0.12 -0.09,0.12Zm0.12,-13.83l0,3.77l2.06,0c0.493,0 0.933,-0.183 1.32,-0.55c0.387,-0.367 0.58,-0.813 0.58,-1.34c0,-0.513 -0.19,-0.953 -0.57,-1.32c-0.373,-0.373 -0.817,-0.56 -1.33,-0.56l-2.06,0Zm7.82,13.71l2.98,-16.49c0.013,-0.067 0.053,-0.1 0.12,-0.1l3.48,0c0.06,0 0.1,0.033 0.12,0.1l2.85,16.49c0.02,0.08 -0.01,0.12 -0.09,0.12l-2.67,0c-0.06,0 -0.1,-0.04 -0.12,-0.12l-0.26,-1.75l-3.27,0l-0.26,1.75c-0.013,0.08 -0.053,0.12 -0.12,0.12l-2.66,0c-0.067,0 -0.1,-0.04 -0.1,-0.12Zm4.7,-11.07l-1.08,6.75l2.31,0l-0.99,-6.75l-0.14,-0.88l-0.1,0.88Zm9.2,11.19l-2.72,0c-0.08,0 -0.12,-0.04 -0.12,-0.12l0.03,-16.49c0,-0.067 0.03,-0.1 0.09,-0.1l2.69,0c0.067,0 0.1,0.033 0.1,0.1l0.02,16.49c0,0.08 -0.03,0.12 -0.09,0.12Zm4.82,0l-2.4,0c-0.127,0 -0.19,-0.057 -0.19,-0.17l-0.03,-16.34c0,-0.133 0.067,-0.2 0.2,-0.2l2.16,0l4.05,9.46l-0.12,-9.26c0,-0.133 0.073,-0.2 0.22,-0.2l2.37,0c0.1,0 0.15,0.067 0.15,0.2l0.02,16.36c0,0.1 -0.04,0.15 -0.12,0.15l-2.11,0l-4.15,-8.83l0.17,8.64c0,0.127 -0.073,0.19 -0.22,0.19Z" style="fill:#009d2b;fill-rule:nonzero;"/><path d="M67.929,63.477l-8.123,0c-0.073,0 -0.109,-0.037 -0.109,-0.112l0,-2.538c0,-0.032 0.015,-0.063 0.046,-0.094l5.373,-7.624c0.102,-0.131 0.187,-0.306 0.254,-0.524c0.066,-0.219 0.1,-0.409 0.1,-0.571c0,-0.438 -0.155,-0.84 -0.463,-1.209c-0.303,-0.362 -0.687,-0.543 -1.153,-0.543c-0.448,0 -0.829,0.175 -1.144,0.525c-0.308,0.349 -0.462,0.796 -0.462,1.339l0,1.096c0,0.075 -0.037,0.112 -0.109,0.112l-2.442,0c-0.06,0 -0.091,-0.037 -0.091,-0.112l0,-1.096c0,-0.843 0.2,-1.608 0.599,-2.295c0.4,-0.686 0.923,-1.233 1.571,-1.639c0.647,-0.406 1.34,-0.608 2.078,-0.608c0.787,0 1.498,0.206 2.133,0.618c0.641,0.412 1.156,0.955 1.543,1.629c0.381,0.675 0.572,1.402 0.572,2.183c0,0.493 -0.082,0.995 -0.245,1.507c-0.17,0.506 -0.4,0.956 -0.69,1.349l-4.139,5.863l4.901,0c0.061,0 0.091,0.031 0.091,0.094l0,2.538c0,0.075 -0.03,0.112 -0.091,0.112Z" style="fill:#fff;fill-rule:nonzero;stroke:#009d2b;stroke-width:0.98px;stroke-linecap:butt;stroke-linejoin:round;stroke-miterlimit:1.41421;"/></svg>